<mxfile host="Electron" modified="2023-09-16T00:29:05.815Z" agent="Mozilla/5.0 (Windows NT 10.0; Win64; x64) AppleWebKit/537.36 (KHTML, like Gecko) draw.io/21.5.1 Chrome/112.0.5615.204 Electron/24.6.0 Safari/537.36" etag="eMVjCmQh12LmOam68WfC" version="21.5.1" type="device">
  <diagram name="Page-1" id="GSPUfBx_rv5YygbpK7FB">
    <mxGraphModel dx="1605" dy="2000" grid="1" gridSize="10" guides="1" tooltips="1" connect="1" arrows="1" fold="1" page="1" pageScale="1" pageWidth="827" pageHeight="1169" math="0" shadow="0">
      <root>
        <mxCell id="0" />
        <mxCell id="1" parent="0" />
        <mxCell id="xgWQrtP5KlWDv3o4AlWQ-32" style="edgeStyle=orthogonalEdgeStyle;rounded=0;orthogonalLoop=1;jettySize=auto;html=1;entryX=0;entryY=0.5;entryDx=0;entryDy=0;entryPerimeter=0;" edge="1" parent="1" source="xgWQrtP5KlWDv3o4AlWQ-1" target="xgWQrtP5KlWDv3o4AlWQ-22">
          <mxGeometry relative="1" as="geometry" />
        </mxCell>
        <mxCell id="xgWQrtP5KlWDv3o4AlWQ-33" style="edgeStyle=orthogonalEdgeStyle;rounded=0;orthogonalLoop=1;jettySize=auto;html=1;entryX=0;entryY=0.5;entryDx=0;entryDy=0;entryPerimeter=0;" edge="1" parent="1" source="xgWQrtP5KlWDv3o4AlWQ-1" target="xgWQrtP5KlWDv3o4AlWQ-23">
          <mxGeometry relative="1" as="geometry" />
        </mxCell>
        <mxCell id="xgWQrtP5KlWDv3o4AlWQ-1" value="On-Premise" style="sketch=0;outlineConnect=0;gradientColor=none;html=1;whiteSpace=wrap;fontSize=12;fontStyle=0;shape=mxgraph.aws4.group;grIcon=mxgraph.aws4.group_on_premise;strokeColor=#AAB7B8;fillColor=none;verticalAlign=top;align=left;spacingLeft=30;fontColor=#AAB7B8;dashed=0;" vertex="1" parent="1">
          <mxGeometry x="-370" y="170" width="310" height="230" as="geometry" />
        </mxCell>
        <mxCell id="xgWQrtP5KlWDv3o4AlWQ-2" value="" style="sketch=0;outlineConnect=0;fontColor=#232F3E;gradientColor=none;fillColor=#232F3D;strokeColor=none;dashed=0;verticalLabelPosition=bottom;verticalAlign=top;align=center;html=1;fontSize=12;fontStyle=0;aspect=fixed;pointerEvents=1;shape=mxgraph.aws4.traditional_server;" vertex="1" parent="1">
          <mxGeometry x="-340" y="220" width="45" height="78" as="geometry" />
        </mxCell>
        <mxCell id="xgWQrtP5KlWDv3o4AlWQ-3" value="" style="sketch=0;outlineConnect=0;fontColor=#232F3E;gradientColor=none;fillColor=#232F3D;strokeColor=none;dashed=0;verticalLabelPosition=bottom;verticalAlign=top;align=center;html=1;fontSize=12;fontStyle=0;aspect=fixed;pointerEvents=1;shape=mxgraph.aws4.traditional_server;" vertex="1" parent="1">
          <mxGeometry x="-237.5" y="220" width="45" height="78" as="geometry" />
        </mxCell>
        <mxCell id="xgWQrtP5KlWDv3o4AlWQ-4" value="" style="sketch=0;outlineConnect=0;fontColor=#232F3E;gradientColor=none;fillColor=#232F3D;strokeColor=none;dashed=0;verticalLabelPosition=bottom;verticalAlign=top;align=center;html=1;fontSize=12;fontStyle=0;aspect=fixed;pointerEvents=1;shape=mxgraph.aws4.traditional_server;" vertex="1" parent="1">
          <mxGeometry x="-130" y="220" width="45" height="78" as="geometry" />
        </mxCell>
        <mxCell id="xgWQrtP5KlWDv3o4AlWQ-5" value="" style="sketch=0;outlineConnect=0;fontColor=#232F3E;gradientColor=none;fillColor=#232F3D;strokeColor=none;dashed=0;verticalLabelPosition=bottom;verticalAlign=top;align=center;html=1;fontSize=12;fontStyle=0;aspect=fixed;pointerEvents=1;shape=mxgraph.aws4.generic_database;" vertex="1" parent="1">
          <mxGeometry x="-293.39" y="320" width="45.39" height="60" as="geometry" />
        </mxCell>
        <mxCell id="xgWQrtP5KlWDv3o4AlWQ-6" value="" style="sketch=0;outlineConnect=0;fontColor=#232F3E;gradientColor=none;fillColor=#232F3D;strokeColor=none;dashed=0;verticalLabelPosition=bottom;verticalAlign=top;align=center;html=1;fontSize=12;fontStyle=0;aspect=fixed;pointerEvents=1;shape=mxgraph.aws4.generic_database;" vertex="1" parent="1">
          <mxGeometry x="-180" y="320" width="45.39" height="60" as="geometry" />
        </mxCell>
        <mxCell id="xgWQrtP5KlWDv3o4AlWQ-36" style="edgeStyle=orthogonalEdgeStyle;rounded=0;orthogonalLoop=1;jettySize=auto;html=1;" edge="1" parent="1" source="xgWQrtP5KlWDv3o4AlWQ-7" target="xgWQrtP5KlWDv3o4AlWQ-35">
          <mxGeometry relative="1" as="geometry" />
        </mxCell>
        <mxCell id="xgWQrtP5KlWDv3o4AlWQ-7" value="" style="rounded=1;arcSize=10;dashed=0;fillColor=none;gradientColor=none;strokeWidth=2;" vertex="1" parent="1">
          <mxGeometry x="-370" y="-140" width="310" height="270" as="geometry" />
        </mxCell>
        <mxCell id="xgWQrtP5KlWDv3o4AlWQ-8" value="" style="dashed=0;html=1;shape=mxgraph.aws3.cloud;fillColor=#F58536;gradientColor=none;dashed=0;" vertex="1" parent="1">
          <mxGeometry x="-350" y="-160" width="52" height="36" as="geometry" />
        </mxCell>
        <mxCell id="xgWQrtP5KlWDv3o4AlWQ-9" value="EBS - Elastic Block Store" style="sketch=0;points=[[0,0,0],[0.25,0,0],[0.5,0,0],[0.75,0,0],[1,0,0],[0,1,0],[0.25,1,0],[0.5,1,0],[0.75,1,0],[1,1,0],[0,0.25,0],[0,0.5,0],[0,0.75,0],[1,0.25,0],[1,0.5,0],[1,0.75,0]];outlineConnect=0;fontColor=#232F3E;gradientColor=#60A337;gradientDirection=north;fillColor=#277116;strokeColor=#ffffff;dashed=0;verticalLabelPosition=bottom;verticalAlign=top;align=center;html=1;fontSize=12;fontStyle=0;aspect=fixed;shape=mxgraph.aws4.resourceIcon;resIcon=mxgraph.aws4.elastic_block_store;" vertex="1" parent="1">
          <mxGeometry x="-330" y="-93" width="78" height="78" as="geometry" />
        </mxCell>
        <mxCell id="xgWQrtP5KlWDv3o4AlWQ-10" value="Redshift" style="sketch=0;points=[[0,0,0],[0.25,0,0],[0.5,0,0],[0.75,0,0],[1,0,0],[0,1,0],[0.25,1,0],[0.5,1,0],[0.75,1,0],[1,1,0],[0,0.25,0],[0,0.5,0],[0,0.75,0],[1,0.25,0],[1,0.5,0],[1,0.75,0]];outlineConnect=0;fontColor=#232F3E;gradientColor=#945DF2;gradientDirection=north;fillColor=#5A30B5;strokeColor=#ffffff;dashed=0;verticalLabelPosition=bottom;verticalAlign=top;align=center;html=1;fontSize=12;fontStyle=0;aspect=fixed;shape=mxgraph.aws4.resourceIcon;resIcon=mxgraph.aws4.redshift;" vertex="1" parent="1">
          <mxGeometry x="-248" y="20" width="78" height="78" as="geometry" />
        </mxCell>
        <mxCell id="xgWQrtP5KlWDv3o4AlWQ-11" value="RDS" style="sketch=0;points=[[0,0,0],[0.25,0,0],[0.5,0,0],[0.75,0,0],[1,0,0],[0,1,0],[0.25,1,0],[0.5,1,0],[0.75,1,0],[1,1,0],[0,0.25,0],[0,0.5,0],[0,0.75,0],[1,0.25,0],[1,0.5,0],[1,0.75,0]];outlineConnect=0;fontColor=#232F3E;gradientColor=#4D72F3;gradientDirection=north;fillColor=#3334B9;strokeColor=#ffffff;dashed=0;verticalLabelPosition=bottom;verticalAlign=top;align=center;html=1;fontSize=12;fontStyle=0;aspect=fixed;shape=mxgraph.aws4.resourceIcon;resIcon=mxgraph.aws4.rds;" vertex="1" parent="1">
          <mxGeometry x="-170" y="-100" width="78" height="78" as="geometry" />
        </mxCell>
        <mxCell id="xgWQrtP5KlWDv3o4AlWQ-41" style="edgeStyle=orthogonalEdgeStyle;rounded=0;orthogonalLoop=1;jettySize=auto;html=1;entryX=0;entryY=0.5;entryDx=0;entryDy=0;" edge="1" parent="1" source="xgWQrtP5KlWDv3o4AlWQ-12" target="xgWQrtP5KlWDv3o4AlWQ-17">
          <mxGeometry relative="1" as="geometry" />
        </mxCell>
        <mxCell id="xgWQrtP5KlWDv3o4AlWQ-12" value="" style="rounded=1;arcSize=10;dashed=0;fillColor=none;gradientColor=none;strokeWidth=2;" vertex="1" parent="1">
          <mxGeometry x="170" y="-140" width="170" height="540" as="geometry" />
        </mxCell>
        <mxCell id="xgWQrtP5KlWDv3o4AlWQ-13" value="" style="dashed=0;html=1;shape=mxgraph.aws3.cloud;fillColor=#F58536;gradientColor=none;dashed=0;" vertex="1" parent="1">
          <mxGeometry x="190" y="-160" width="52" height="36" as="geometry" />
        </mxCell>
        <mxCell id="xgWQrtP5KlWDv3o4AlWQ-17" value="" style="rounded=1;arcSize=10;dashed=0;fillColor=none;gradientColor=none;strokeWidth=2;" vertex="1" parent="1">
          <mxGeometry x="420" y="-140" width="170" height="540" as="geometry" />
        </mxCell>
        <mxCell id="xgWQrtP5KlWDv3o4AlWQ-18" value="" style="dashed=0;html=1;shape=mxgraph.aws3.cloud;fillColor=#F58536;gradientColor=none;dashed=0;" vertex="1" parent="1">
          <mxGeometry x="440" y="-160" width="52" height="36" as="geometry" />
        </mxCell>
        <mxCell id="xgWQrtP5KlWDv3o4AlWQ-21" value="RDS" style="sketch=0;points=[[0,0,0],[0.25,0,0],[0.5,0,0],[0.75,0,0],[1,0,0],[0,1,0],[0.25,1,0],[0.5,1,0],[0.75,1,0],[1,1,0],[0,0.25,0],[0,0.5,0],[0,0.75,0],[1,0.25,0],[1,0.5,0],[1,0.75,0]];outlineConnect=0;fontColor=#232F3E;gradientColor=#4D72F3;gradientDirection=north;fillColor=#3334B9;strokeColor=#ffffff;dashed=0;verticalLabelPosition=bottom;verticalAlign=top;align=center;html=1;fontSize=12;fontStyle=0;aspect=fixed;shape=mxgraph.aws4.resourceIcon;resIcon=mxgraph.aws4.rds;" vertex="1" parent="1">
          <mxGeometry x="466" y="242" width="78" height="78" as="geometry" />
        </mxCell>
        <mxCell id="xgWQrtP5KlWDv3o4AlWQ-27" style="edgeStyle=orthogonalEdgeStyle;rounded=0;orthogonalLoop=1;jettySize=auto;html=1;entryX=0;entryY=0.5;entryDx=0;entryDy=0;entryPerimeter=0;" edge="1" parent="1" source="xgWQrtP5KlWDv3o4AlWQ-22" target="xgWQrtP5KlWDv3o4AlWQ-25">
          <mxGeometry relative="1" as="geometry" />
        </mxCell>
        <mxCell id="xgWQrtP5KlWDv3o4AlWQ-22" value="AWS Storage Gateway" style="sketch=0;points=[[0,0,0],[0.25,0,0],[0.5,0,0],[0.75,0,0],[1,0,0],[0,1,0],[0.25,1,0],[0.5,1,0],[0.75,1,0],[1,1,0],[0,0.25,0],[0,0.5,0],[0,0.75,0],[1,0.25,0],[1,0.5,0],[1,0.75,0]];outlineConnect=0;fontColor=#232F3E;gradientColor=#60A337;gradientDirection=north;fillColor=#277116;strokeColor=#ffffff;dashed=0;verticalLabelPosition=bottom;verticalAlign=top;align=center;html=1;fontSize=12;fontStyle=0;aspect=fixed;shape=mxgraph.aws4.resourceIcon;resIcon=mxgraph.aws4.storage_gateway;" vertex="1" parent="1">
          <mxGeometry x="20" y="190" width="78" height="78" as="geometry" />
        </mxCell>
        <mxCell id="xgWQrtP5KlWDv3o4AlWQ-28" style="edgeStyle=orthogonalEdgeStyle;rounded=0;orthogonalLoop=1;jettySize=auto;html=1;" edge="1" parent="1" source="xgWQrtP5KlWDv3o4AlWQ-23" target="xgWQrtP5KlWDv3o4AlWQ-26">
          <mxGeometry relative="1" as="geometry" />
        </mxCell>
        <mxCell id="xgWQrtP5KlWDv3o4AlWQ-23" value="AWS Snowball" style="sketch=0;points=[[0,0,0],[0.25,0,0],[0.5,0,0],[0.75,0,0],[1,0,0],[0,1,0],[0.25,1,0],[0.5,1,0],[0.75,1,0],[1,1,0],[0,0.25,0],[0,0.5,0],[0,0.75,0],[1,0.25,0],[1,0.5,0],[1,0.75,0]];outlineConnect=0;fontColor=#232F3E;gradientColor=#60A337;gradientDirection=north;fillColor=#277116;strokeColor=#ffffff;dashed=0;verticalLabelPosition=bottom;verticalAlign=top;align=center;html=1;fontSize=12;fontStyle=0;aspect=fixed;shape=mxgraph.aws4.resourceIcon;resIcon=mxgraph.aws4.snowball;" vertex="1" parent="1">
          <mxGeometry x="20" y="298" width="78" height="78" as="geometry" />
        </mxCell>
        <mxCell id="xgWQrtP5KlWDv3o4AlWQ-34" value="Lifecycle" style="edgeStyle=orthogonalEdgeStyle;rounded=0;orthogonalLoop=1;jettySize=auto;html=1;entryX=1;entryY=0.5;entryDx=0;entryDy=0;entryPerimeter=0;" edge="1" parent="1" source="xgWQrtP5KlWDv3o4AlWQ-25" target="xgWQrtP5KlWDv3o4AlWQ-26">
          <mxGeometry relative="1" as="geometry">
            <Array as="points">
              <mxPoint x="308" y="229" />
              <mxPoint x="308" y="337" />
            </Array>
          </mxGeometry>
        </mxCell>
        <mxCell id="xgWQrtP5KlWDv3o4AlWQ-25" value="Amazon S3" style="sketch=0;points=[[0,0,0],[0.25,0,0],[0.5,0,0],[0.75,0,0],[1,0,0],[0,1,0],[0.25,1,0],[0.5,1,0],[0.75,1,0],[1,1,0],[0,0.25,0],[0,0.5,0],[0,0.75,0],[1,0.25,0],[1,0.5,0],[1,0.75,0]];outlineConnect=0;fontColor=#232F3E;gradientColor=#60A337;gradientDirection=north;fillColor=#277116;strokeColor=#ffffff;dashed=0;verticalLabelPosition=top;verticalAlign=bottom;align=center;html=1;fontSize=12;fontStyle=0;aspect=fixed;shape=mxgraph.aws4.resourceIcon;resIcon=mxgraph.aws4.s3;labelPosition=center;" vertex="1" parent="1">
          <mxGeometry x="210" y="190" width="78" height="78" as="geometry" />
        </mxCell>
        <mxCell id="xgWQrtP5KlWDv3o4AlWQ-26" value="Glacier" style="sketch=0;points=[[0,0,0],[0.25,0,0],[0.5,0,0],[0.75,0,0],[1,0,0],[0,1,0],[0.25,1,0],[0.5,1,0],[0.75,1,0],[1,1,0],[0,0.25,0],[0,0.5,0],[0,0.75,0],[1,0.25,0],[1,0.5,0],[1,0.75,0]];outlineConnect=0;fontColor=#232F3E;gradientColor=#60A337;gradientDirection=north;fillColor=#277116;strokeColor=#ffffff;dashed=0;verticalLabelPosition=bottom;verticalAlign=top;align=center;html=1;fontSize=12;fontStyle=0;aspect=fixed;shape=mxgraph.aws4.resourceIcon;resIcon=mxgraph.aws4.glacier;" vertex="1" parent="1">
          <mxGeometry x="210" y="298" width="78" height="78" as="geometry" />
        </mxCell>
        <mxCell id="xgWQrtP5KlWDv3o4AlWQ-35" value="Snapshot" style="sketch=0;outlineConnect=0;fontColor=#232F3E;gradientColor=none;fillColor=#3F8624;strokeColor=none;dashed=0;verticalLabelPosition=bottom;verticalAlign=top;align=center;html=1;fontSize=12;fontStyle=0;aspect=fixed;pointerEvents=1;shape=mxgraph.aws4.snapshot;" vertex="1" parent="1">
          <mxGeometry x="221" y="-44" width="56" height="78" as="geometry" />
        </mxCell>
        <mxCell id="xgWQrtP5KlWDv3o4AlWQ-37" value="" style="sketch=0;points=[[0,0,0],[0.25,0,0],[0.5,0,0],[0.75,0,0],[1,0,0],[0,1,0],[0.25,1,0],[0.5,1,0],[0.75,1,0],[1,1,0],[0,0.25,0],[0,0.5,0],[0,0.75,0],[1,0.25,0],[1,0.5,0],[1,0.75,0]];outlineConnect=0;fontColor=#232F3E;gradientColor=#F78E04;gradientDirection=north;fillColor=#D05C17;strokeColor=#ffffff;dashed=0;verticalLabelPosition=bottom;verticalAlign=top;align=center;html=1;fontSize=12;fontStyle=0;aspect=fixed;shape=mxgraph.aws4.resourceIcon;resIcon=mxgraph.aws4.ec2;" vertex="1" parent="1">
          <mxGeometry x="466" y="-44" width="78" height="78" as="geometry" />
        </mxCell>
        <mxCell id="xgWQrtP5KlWDv3o4AlWQ-40" style="edgeStyle=orthogonalEdgeStyle;rounded=0;orthogonalLoop=1;jettySize=auto;html=1;" edge="1" parent="1" source="xgWQrtP5KlWDv3o4AlWQ-38" target="xgWQrtP5KlWDv3o4AlWQ-37">
          <mxGeometry relative="1" as="geometry" />
        </mxCell>
        <mxCell id="xgWQrtP5KlWDv3o4AlWQ-38" value="AMI" style="sketch=0;outlineConnect=0;fontColor=#232F3E;gradientColor=none;fillColor=#D45B07;strokeColor=none;dashed=0;verticalLabelPosition=bottom;verticalAlign=top;align=center;html=1;fontSize=12;fontStyle=0;aspect=fixed;pointerEvents=1;shape=mxgraph.aws4.ami;" vertex="1" parent="1">
          <mxGeometry x="481" y="82" width="48" height="48" as="geometry" />
        </mxCell>
      </root>
    </mxGraphModel>
  </diagram>
</mxfile>
